<?xml version="1.0" encoding="utf-8"?>
<!-- Generator: Adobe Illustrator 26.0.2, SVG Export Plug-In . SVG Version: 6.00 Build 0)  -->
<svg version="1.1" id="Layer_1" xmlns="http://www.w3.org/2000/svg" xmlns:xlink="http://www.w3.org/1999/xlink" x="0px" y="0px"
	 width="160.8px" height="33px" viewBox="0 0 160.8 33" style="enable-background:new 0 0 160.8 33;" xml:space="preserve">
<style type="text/css">
	.st0{fill:#FFFFFF;}
	.st1{fill:#19171C;}
	.st2{fill:#E3352E;}
	.st3{fill:#7E171B;}
</style>
<g>
	<g>
		<path class="st0" d="M127.9,2c2.6,0,5.2,0,7.7,0c0,0.6,0,1.3,0,1.9c0.6,0,1.3,0,1.9,0c0,0.6,0,1.3,0,1.9c0.6,0,1.3,0,1.9,0
			c0,0.6,0,1.3,0,1.9c1.3,0,2.6,0,3.9,0c0-0.6,0-1.3,0-1.9c0.6,0,1.3,0,1.9,0c0-0.6,0-1.3,0-1.9c0.6,0,1.3,0,1.9,0
			c0-0.6,0-1.3,0-1.9c2.6,0,5.2,0,7.7,0c0,0.6,0,1.3,0,1.9c0.6,0,1.3,0,1.9,0c0,1.3,0,2.6,0,3.9c0.6,0,1.3,0,1.9,0
			c0,1.9,0,3.9,0,5.8c-0.6,0-1.3,0-1.9,0c0,0.6,0,1.3,0,1.9c-0.6,0.1-1.3,0-1.9,0c0,0.6,0,1.3,0,1.9c-0.7,0-1.3,0-1.9,0
			c0,0.6,0,1.3,0,1.9c-0.6,0-1.3,0-1.9,0c0,0.6,0,1.3,0,1.9c-0.6,0-1.3,0-1.9,0c0,0.6,0,1.3,0,1.9c-0.6,0-1.3,0-1.9,0
			c0,0.6,0,1.3,0,1.9c-0.6,0-1.3,0-1.9,0c0,0.6,0,1.3,0,1.9c-0.6,0-1.3,0-1.9,0c0,0.6,0,1.3,0,1.9c-1.3,0-2.6,0-3.9,0
			c0-0.6,0-1.3,0-1.9c-0.6,0-1.2,0-1.9,0c0-0.6,0-1.3,0-1.9c-0.6,0-1.3,0-1.9,0c0-0.6,0-1.3,0-1.9c-0.6,0-1.3,0-1.9,0
			c0-0.6,0-1.2,0-1.9c-0.6,0-1.2,0-1.9,0c-0.1-0.6,0-1.3,0-1.9c-0.6,0-1.3,0-1.9,0c0-0.6,0-1.3,0-1.9c-0.6,0-1.3,0-1.9,0
			c0-0.6,0-1.3,0-1.9c-0.6,0-1.2,0-1.9,0c0-0.6,0-1.2,0-1.9c-0.6,0-1.3,0-1.9,0c0-1.9,0-3.9,0-5.8c0.6,0,1.3,0,1.9,0
			c0-1.3,0-2.6,0-3.9c0.6,0,1.3,0,1.9,0C127.9,3.3,127.9,2.6,127.9,2z"/>
		<g>
			<path class="st1" d="M125.9,0c1.9,0,3.8,0,5.7,0c2,0,4,0,6,0c0,0.6,0,1.3,0,1.9c0.6,0,1.3,0,1.9,0c0,0.7,0,1.3,0,2
				c1.3,0,2.5,0,3.8,0c0-0.7,0-1.3,0-2c0.6,0,1.3,0,1.9,0c0-0.6,0-1.3,0-1.9c3.9,0,7.8,0,11.7,0c0,0.6,0,1.3,0,1.9
				c0.6,0,1.3,0,1.9,0c0,1.3,0,2.6,0,3.9c0.6,0,1.3,0,1.9,0c0,3.3,0,6.5,0,9.8c-0.6,0-1.3,0-1.9,0c0,0.6,0,1.3,0,1.9
				c-0.6,0-1.3,0-1.9,0c0,0.6,0,1.3,0,1.9c-0.7,0-1.3,0-2,0c0,0.7,0,1.3,0,2c-0.6,0-1.3,0-1.9,0c0,0.6,0,1.3,0,1.9
				c-0.6,0-1.3,0-1.9,0c0,0.6,0,1.3,0,1.9c-0.7,0-1.3,0-2,0c0,0.7,0,1.3,0,2c-0.6,0-1.3,0-1.9,0c0,0.6,0,1.3,0,1.9
				c-0.6,0-1.3,0-1.9,0c0,0.6,0,1.3,0,1.9c-0.7,0-1.3,0-2,0c0,0.7,0,1.3,0,2c-1.3,0-2.6,0-3.9,0c0-0.7,0-1.3,0-2c-0.7,0-1.3,0-2,0
				c0-0.6,0-1.3,0-1.9c-0.6,0-1.3,0-1.9,0c0-0.6,0-1.3,0-1.9c-0.6,0-1.3,0-1.9,0c0-0.7,0-1.3,0-2c-0.7,0-1.3,0-2,0
				c0-0.6,0-1.3,0-1.9c-0.6,0-1.3,0-1.9,0c0-0.6,0-1.3,0-1.9c-0.6,0-1.3,0-1.9,0c0-0.7,0-1.3,0-2c-0.7,0-1.3,0-2,0
				c0-0.6,0-1.3,0-1.9c-0.7,0-1.3,0-2,0c0-0.6,0-1.3,0-1.9c-0.6,0-1.3,0-1.9,0c0-2.8,0-5.7,0-8.5c0-0.4,0-0.9,0-1.3
				c0.6,0,1.2,0,1.9,0c0-1.3,0-2.6,0-3.9c0.6-0.1,1.3,0,1.9,0C125.9,1.3,125.8,0.6,125.9,0z M127.9,2c0,0.6,0,1.3,0,1.9
				c-0.6,0-1.3,0-1.9,0c-0.1,1.3,0,2.6,0,3.9c-0.6,0-1.3,0-1.9,0c0,1.9,0,3.9,0,5.8c0.6,0,1.3,0,1.9,0c0,0.6,0,1.2,0,1.9
				c0.6,0,1.2,0,1.9,0c0,0.6,0,1.3,0,1.9c0.6,0,1.3,0,1.9,0c0,0.6,0,1.3,0,1.9c0.6,0,1.3,0,1.9,0c0,0.6,0,1.3,0,1.9
				c0.6,0,1.2,0,1.9,0c0,0.6,0,1.2,0,1.9c0.6,0,1.3,0,1.9,0c0,0.6,0,1.3,0,1.9c0.6,0,1.3,0,1.9,0c0,0.6,0,1.3,0,1.9
				c0.6,0,1.2,0,1.9,0c0,0.6,0,1.3,0,1.9c1.3,0,2.6,0,3.9,0c0-0.6,0-1.3,0-1.9c0.6,0,1.3,0,1.9,0c0.1-0.6,0-1.3,0-1.9
				c0.6,0,1.3,0,1.9,0c0-0.6,0-1.3,0-1.9c0.6,0,1.3,0,1.9,0c0-0.6,0-1.3,0-1.9c0.6,0,1.3,0,1.9,0c0-0.6,0-1.3,0-1.9
				c0.6,0,1.3,0,1.9,0c0-0.6,0-1.3,0-1.9c0.6,0,1.3,0,1.9,0c0-0.6,0-1.3,0-1.9c0.6,0,1.3,0,1.9,0c0-0.6,0-1.3,0-1.9
				c0.6,0,1.3,0,1.9,0c0-1.9,0-3.9,0-5.8c-0.6,0-1.3,0-1.9,0c0-1.3,0-2.6,0-3.9c-0.6,0-1.3,0-1.9,0c0-0.6,0-1.3,0-1.9
				c-2.6,0-5.2,0-7.7,0c0,0.6,0,1.3,0,1.9c-0.6,0-1.3,0-1.9,0c0,0.6,0,1.3,0,1.9c-0.6,0-1.3,0-1.9,0c0,0.6,0,1.3,0,1.9
				c-1.3,0-2.6,0-3.9,0c0-0.6,0-1.3,0-1.9c-0.6,0-1.3,0-1.9,0c0-0.6,0-1.3,0-1.9c-0.6,0-1.3,0-1.9,0c0-0.6,0-1.3,0-1.9
				C133,2,130.4,2,127.9,2z"/>
		</g>
	</g>
	<g>
		<path class="st0" d="M31.1,5.8c0.7,0,1.3,0,2,0c0,2.6,0,5.2,0,7.8c-1.3,0-2.6,0-3.9,0c0-0.7,0-1.3,0-2c0.6,0,1.3,0,1.9,0
			C31.1,9.6,31.1,7.7,31.1,5.8z"/>
		<g>
			<path class="st1" d="M3.9,0C4,0,4.1,0,4.2,0C8,0,11.8,0,15.5,0c0,0.6,0,1.3,0,1.9c0.6,0,1.3,0,1.9,0c0,0.7,0,1.3,0,2
				c1.3,0,2.5,0,3.8,0c0-0.7,0-1.3,0-2c0.6,0,1.3,0,1.9,0c0-0.6,0-1.3,0-1.9c3.9,0,7.8,0,11.7,0c0,0.6,0,1.3,0,1.9
				c0.6,0,1.3,0,1.9,0c0,1.3,0,2.6,0,3.9c0.6,0,1.3,0,1.9,0c0,3.3,0,6.5,0,9.8c-0.6,0-1.3,0-1.9,0c0,0.6,0,1.3,0,1.9
				c-0.6,0-1.3,0-1.9,0c0,0.6,0,1.3,0,1.9c-0.7,0-1.3,0-2,0c0,0.7,0,1.3,0,2c-0.6,0-1.3,0-1.9,0c0,0.6,0,1.3,0,1.9
				c-0.6,0-1.3,0-1.9,0c0,0.6,0,1.3,0,1.9c-0.7,0-1.3,0-2,0c0,0.7,0,1.3,0,2c-0.6,0-1.3,0-1.9,0c0,0.6,0,1.3,0,1.9
				c-0.6,0-1.3,0-1.9,0c0,0.6,0,1.3,0,1.9c-0.7,0-1.3,0-2,0c0,0.7,0,1.3,0,2c-1.3,0-2.6,0-3.9,0c0-0.7,0-1.3,0-2c-0.7,0-1.3,0-2,0
				c0-0.6,0-1.3,0-1.9c-0.6,0-1.3,0-1.9,0c0-0.6,0-1.3,0-1.9c-0.6,0-1.3,0-1.9,0c0-0.7,0-1.3,0-2c-0.7,0-1.3,0-2,0
				c0-0.6,0-1.3,0-1.9c-0.6,0-1.3,0-1.9,0c0-0.6,0-1.3,0-1.9c-0.6,0-1.3,0-1.9,0c0-0.7,0-1.3,0-2c-0.7,0-1.3,0-2,0
				c0-0.6,0-1.3,0-1.9c-0.7,0-1.3,0-2,0c0-0.6,0-1.3,0-1.9c-0.6,0-1.3,0-1.9,0c0-2.8,0-5.7,0-8.5c0-0.4,0-0.9,0-1.3
				c0.6,0,1.2,0,1.9,0c0-1.3,0-2.6,0-3.9c0.6-0.1,1.3,0,1.9,0C3.9,1.3,3.8,0.6,3.9,0z M5.8,2c0,0.6,0,1.3,0,1.9c-0.6,0-1.3,0-1.9,0
				c0,0.1,0,0.2,0,0.2c0,0.1,0,0.3,0,0.4c-0.1,0.6,0,1.1,0,1.7c0,0.5,0,1,0,1.5c0,0-0.1,0-0.1,0c-0.6,0-1.2,0-1.8,0
				c0,1.9,0,3.9,0,5.8c0.6,0,1.3,0,1.9,0c0,0.6,0,1.2,0,1.9c0.6,0.1,1.2,0,1.9,0c0,0.6,0,1.3,0,1.9c0.6,0,1.3,0,1.9,0
				c0,0.6,0,1.3,0,1.9c0.6,0,1.3,0,1.9,0c0,0.6,0,1.3,0,1.9c0.6,0,1.2,0,1.9,0c0.1,0.6,0,1.2,0,1.8c0.6,0.1,1.3,0,1.9,0
				c0,0.6,0,1.3,0,1.9c0.6,0,1.3,0,1.9,0c0.1,0.6,0,1.3,0,1.9c0.6,0,1.2,0,1.9,0c0,0.6,0,1.2,0,1.9c1.3,0.1,2.6,0.1,3.9,0
				c0-0.6,0-1.3,0-1.9c0.6,0,1.3,0,1.9,0c0.1-0.6,0-1.3,0-1.9c0.6,0,1.3,0,1.9,0c0-0.7,0-1.3,0-2c0.6,0,1.3,0,1.9,0
				c0-0.6,0-1.3,0-1.9c0.6,0,1.3,0,1.9,0c0-0.6,0-1.3,0-1.9c0.6,0,1.3,0,1.9,0c0-0.6,0-1.3,0-1.9c0.6,0,1.3,0,1.9,0
				c0-0.6,0-1.3,0-1.9c0.6,0,1.3,0,1.9,0c0-0.6,0-1.3,0-1.9c0.6,0,1.3,0,1.9,0c0-1.9,0-3.9,0-5.8c-0.6,0-1.3,0-1.9,0
				c0-1.3,0-2.6,0-3.9c-0.6,0-1.3,0-1.9,0c0-0.6,0-1.3,0-1.9c-2.6,0-5.2,0-7.8,0c0,0.6,0,1.3,0,1.9c-0.6,0-1.3,0-1.9,0
				c0,0.6,0,1.3,0,1.9c-0.6,0-1.3,0-1.9,0c0,0.6,0,1.3,0,1.9c-1.3,0-2.6,0-3.9,0c0-0.6,0-1.3,0-1.9c-0.6,0-1.3,0-1.9,0
				c0-0.6,0-1.3,0-1.9c-0.6,0-1.3,0-1.9,0c0-0.6,0-1.3,0-1.9C11,2,8.4,2,5.8,2z"/>
		</g>
		<g>
			<path class="st2" d="M5.8,2c2.6,0,5.2,0,7.7,0c0,0.6,0,1.3,0,1.9c0.6,0,1.3,0,1.9,0c0,0.6,0,1.3,0,1.9c0.6,0,1.3,0,1.9,0
				c0,0.6,0,1.3,0,1.9c1.3,0,2.6,0,3.9,0c0-0.6,0-1.3,0-1.9c0.6,0,1.3,0,1.9,0c0-0.6,0-1.3,0-1.9c0.6,0,1.3,0,1.9,0
				c0-0.6,0-1.3,0-1.9c2.6,0,5.2,0,7.8,0c0,0.6,0,1.3,0,1.9c0.6,0,1.3,0,1.9,0c0,1.3,0,2.6,0,3.9c0.6,0,1.3,0,1.9,0
				c0,1.9,0,3.9,0,5.8c-0.6,0-1.3,0-1.9,0c0,0.6,0,1.3,0,1.9c-0.6,0.1-1.3,0-1.9,0c0,0.6,0,1.3,0,1.9c-0.6,0-1.3,0-1.9,0
				c0,0.6,0,1.3,0,1.9c-0.6,0-1.3,0-1.9,0c0,0.6,0,1.3,0,1.9c-0.6,0-1.3,0-1.9,0c0,0.6,0,1.3,0,1.9c-0.6,0-1.3,0-1.9,0
				c0,0.7,0,1.3,0,2c-0.6,0-1.3,0-1.9,0c0,0.6,0,1.3,0,1.9c-0.6,0-1.3,0-1.9,0c-0.7,0-1.3,0-2,0c0-0.6,0-1.3,0-1.9
				c-0.6,0-1.3,0-1.9,0c0-0.6,0-1.3,0-1.9c-0.6,0-1.2,0-1.9,0c0-0.6,0-1.3,0-1.9c-0.6,0-1.3,0-1.9,0c0-0.6,0-1.3,0-1.9
				c-0.6,0-1.3,0-1.9,0c0-0.6,0-1.3-0.1-1.9c-0.6,0-1.3,0-1.9,0c0-0.6,0-1.3,0-1.9c-0.6,0-1.3,0-1.9,0c-0.1-0.6,0-1.3,0-1.9
				c-0.6,0-1.3,0-1.9,0c0-0.6,0-1.3,0-1.9c-0.6,0-1.2,0-1.9,0c0-0.1,0-0.3,0-0.4c0-0.9,0-1.9,0-2.8c0.1-1.4,0-2.8,0-4.3
				c0-0.1,0-0.2,0-0.2c0.6,0,1.3,0,1.9,0C5.8,3.3,5.8,2.6,5.8,2z M31.1,5.8c0,1.9,0,3.9,0,5.8c-0.6,0-1.3,0-1.9,0c0,0.7,0,1.3,0,2
				c1.3,0,2.6,0,3.9,0c0-2.6,0-5.2,0-7.8C32.4,5.8,31.8,5.8,31.1,5.8z"/>
		</g>
		<path class="st3" d="M3.9,4.6c0-0.1,0-0.3,0-0.4c0,1.4,0,2.9,0,4.3c0,0.9,0,1.9,0,2.8c0,0.1,0,0.3,0,0.4c0.6,0.1,1.2,0,1.9,0
			c0,0.6,0,1.3,0,1.9c0.6,0,1.3,0,1.9,0c0,0.6,0,1.3,0,1.9c0.6,0,1.3,0,1.9,0c0,0.6,0,1.3,0,1.9c0.6,0,1.3,0,1.9,0
			c0.1,0.6,0,1.3,0.1,1.9c0.6,0,1.3,0,1.9,0c0,0.6,0,1.3,0,1.9c0.6,0,1.3,0,1.9,0c0,0.6,0,1.3,0,1.9c0.6,0,1.2,0,1.9,0
			c0,0.6,0,1.3,0,1.9c0.6,0,1.3,0,1.9,0c0,0.6,0,1.3,0,1.9c0.7,0,1.3,0,2,0c0,0.6,0,1.3,0,1.9c-1.3,0-2.6,0.1-3.9,0
			c0-0.6,0-1.2,0-1.9c-0.6,0-1.2,0-1.9,0c0-0.6,0-1.3,0-1.9c-0.6,0-1.3,0-1.9,0c0-0.6,0-1.3,0-1.9c-0.6,0-1.3,0-1.9,0
			c-0.1-0.6,0-1.2,0-1.8c-0.6-0.1-1.2,0-1.9,0c-0.1-0.6,0-1.3,0-1.9c-0.6,0-1.3,0-1.9,0c0-0.6,0-1.3,0-1.9c-0.6,0-1.3,0-1.9,0
			c0-0.6,0-1.3,0-1.9c-0.6,0-1.2,0-1.9,0c0-0.6,0-1.2,0-1.9c-0.6,0-1.3,0-1.9,0c0-1.9,0-3.9,0-5.8c0.6,0,1.2,0,1.8,0
			c0,0,0.1,0,0.1,0c0.1-0.5,0-1,0-1.5C3.9,5.7,3.8,5.1,3.9,4.6z"/>
	</g>
	<g>
		<path class="st0" d="M46.6,2c2.6,0,5.2,0,7.7,0c0,0.6,0,1.3,0,1.9c0.6,0,1.3,0,1.9,0c0,0.6,0,1.3,0,1.9c0.6,0,1.3,0,1.9,0
			c0,0.6,0,1.3,0,1.9c1.3,0,2.6,0,3.9,0c0-0.6,0-1.3,0-1.9c0.6,0,1.3,0,1.9,0c0-0.6,0-1.3,0-1.9c0.6,0,1.3,0,1.9,0
			c0-0.6,0-1.3,0-1.9c2.6,0,5.2,0,7.7,0c0,0.6,0,1.3,0,1.9c0.6,0,1.3,0,1.9,0c0,1.3,0,2.6,0,3.9c0.6,0,1.3,0,1.9,0
			c0,1.9,0,3.9,0,5.8c-0.6,0-1.3,0-1.9,0c-9.7,0-19.3,0-29,0c-0.7,0-1.3,0-2,0c-0.6,0-1.3,0-1.9,0c0-1.9,0-3.9,0-5.8
			c0.6,0,1.3,0,1.9,0c0-1.3,0-2.6,0-3.9c0.6,0,1.3,0,1.9,0C46.5,3.3,46.5,2.6,46.6,2z"/>
		<g>
			<path class="st1" d="M44.6,0c1.1,0,2.1,0,3.2,0c2.8,0,5.6,0,8.4,0c0,0.6,0,1.3,0,1.9c0.6,0,1.3,0,1.9,0c0,0.7,0,1.3,0,2
				c1.3,0,2.5,0,3.8,0c0-0.7,0-1.3,0-2c0.6,0,1.3,0,1.9,0c0-0.6,0-1.3,0-1.9c3.9,0,7.8,0,11.7,0c0,0.6,0,1.3,0,1.9
				c0.6,0,1.3,0,1.9,0c0,1.3,0,2.6,0,3.9c0.6,0,1.3,0,1.9,0c0,3.3,0,6.5,0,9.8c-0.6,0-1.3,0-1.9,0c0,0.6,0,1.3,0,1.9
				c-0.6,0-1.3,0-1.9,0c0,0.6,0,1.3,0,1.9c-0.7,0-1.3,0-2,0c0,0.7,0,1.3,0,2c-0.6,0-1.3,0-1.9,0c0,0.6,0,1.3,0,1.9
				c-0.6,0-1.3,0-1.9,0c0,0.6,0,1.3,0,1.9c-0.7,0-1.3,0-2,0c0,0.7,0,1.3,0,2c-0.6,0-1.3,0-1.9,0c0,0.6,0,1.3,0,1.9
				c-0.6,0-1.3,0-1.9,0c0,0.6,0,1.3,0,1.9c-0.7,0-1.3,0-2,0c0,0.7,0,1.3,0,2c-1.3,0-2.6,0-3.9,0c0-0.7,0-1.3,0-2c-0.7,0-1.3,0-2,0
				c0-0.6,0-1.3,0-1.9c-0.6,0-1.3,0-1.9,0c0-0.6,0-1.3,0-1.9c-0.6,0-1.3,0-1.9,0c0-0.7,0-1.3,0-2c-0.7,0-1.3,0-2,0
				c0-0.6,0-1.3,0-1.9c-0.6,0-1.3,0-1.9,0c0-0.6,0-1.3,0-1.9c-0.6,0-1.3,0-1.9,0c0-0.7,0-1.3,0-2c-0.7,0-1.3,0-2,0
				c0-0.6,0-1.3,0-1.9c-0.7,0-1.3,0-2,0c0-0.6,0-1.3,0-1.9c-0.6,0-1.3,0-1.9,0c0-2.8,0-5.7,0-8.5c0-0.4,0-0.9,0-1.3
				c0.6,0,1.2,0,1.9,0c0-1.3,0-2.6,0-3.9c0.6-0.1,1.3,0,1.9,0C44.6,1.3,44.5,0.6,44.6,0z M46.6,2c0,0.6,0,1.3,0,1.9
				c-0.6,0-1.3,0-1.9,0c-0.1,1.3,0,2.6,0,3.9c-0.6,0-1.3,0-1.9,0c0,1.9,0,3.9,0,5.8c0.6,0,1.3,0,1.9,0c0,0.6,0,1.3,0,1.9
				c0.6,0.1,1.2,0,1.9,0c0,0.6,0,1.3,0,1.9c0.6,0,1.3,0,1.9,0c0,0.6,0,1.3,0,1.9c0.6,0,1.3,0,1.9,0c0,0.6,0,1.3,0,1.9
				c0.6,0,1.2,0,1.9,0c0,0.6,0,1.2,0,1.9c0.6,0,1.3,0,1.9,0c0,0.6,0,1.3,0,1.9c0.6,0,1.3,0,1.9,0c0,0.6,0,1.3,0,1.9
				c0.6,0,1.2,0,1.9,0c0,0.6,0,1.2,0,1.9c1.3,0.1,2.6,0.1,3.9,0c0-0.6,0-1.3,0-1.9c0.6,0,1.3,0,1.9,0c0.1-0.6,0-1.3,0-1.9
				c0.6,0,1.3,0,1.9,0c0-0.6,0-1.3,0-1.9c0.6,0,1.3,0,1.9,0c0-0.6,0-1.3,0-1.9c0.6,0,1.3,0,1.9,0c0-0.6,0-1.3,0-1.9
				c0.6,0,1.3,0,1.9,0c0-0.6,0-1.3,0-1.9c0.7,0,1.3,0,2,0c0-0.6,0-1.3,0-1.9c0.6,0,1.3,0,1.9,0c0-0.6,0-1.3,0-1.9c0.6,0,1.3,0,1.9,0
				c0-1.9,0-3.9,0-5.8c-0.6,0-1.3,0-1.9,0c0-1.3,0-2.6,0-3.9c-0.6,0-1.3,0-1.9,0c0-0.6,0-1.3,0-1.9c-2.6,0-5.2,0-7.7,0
				c0,0.6,0,1.3,0,1.9c-0.6,0-1.3,0-1.9,0c0,0.6,0,1.3,0,1.9c-0.6,0-1.3,0-1.9,0c0,0.6,0,1.3,0,1.9c-1.3,0-2.6,0-3.9,0
				c0-0.6,0-1.3,0-1.9c-0.6,0-1.3,0-1.9,0c0-0.6,0-1.3,0-1.9c-0.6,0-1.3,0-1.9,0c0-0.6,0-1.3,0-1.9C51.7,2,49.1,2,46.6,2z"/>
		</g>
		<path class="st2" d="M46.6,13.6c9.7,0,19.3,0,29,0c0,0.6,0,1.3,0,1.9c-0.6,0.1-1.3,0-1.9,0c0,0.6,0,1.3,0,1.9c-0.7,0-1.3,0-2,0
			c0,0.6,0,1.3,0,1.9c-0.6,0-1.3,0-1.9,0c0,0.6,0,1.3,0,1.9c-0.6,0-1.3,0-1.9,0c0,0.6,0,1.3,0,1.9c-0.6,0-1.3,0-1.9,0
			c0,0.6,0,1.3,0,1.9c-0.6,0-1.3,0-1.9,0c0,0.6,0,1.3,0,1.9c-0.6,0-1.3,0-1.9,0c-0.7,0-1.3,0-2,0c0-0.6,0-1.3,0-1.9
			c-0.6,0-1.3,0-1.9,0c0-0.6,0-1.3,0-1.9c-0.6,0-1.2,0-1.9,0c0-0.6,0-1.3,0-1.9c-0.6,0-1.3,0-1.9,0c0-0.6,0-1.3,0-1.9
			c-0.6,0-1.3,0-1.9,0c0-0.6,0-1.3-0.1-1.9c-0.6,0-1.3,0-1.9,0c0-0.6,0-1.3,0-1.9c-0.6,0-1.3,0-1.9,0c-0.1-0.6,0-1.2,0-1.9
			C47.9,13.6,47.2,13.7,46.6,13.6z"/>
		<path class="st3" d="M44.6,13.6c0.7,0,1.3,0,2,0c0.6,0,1.2,0,1.9,0c0,0.6,0,1.2,0,1.9c0.6,0.1,1.3,0,1.9,0c0,0.6,0,1.3,0,1.9
			c0.6,0,1.3,0,1.9,0c0.1,0.6,0,1.3,0.1,1.9c0.6,0,1.3,0,1.9,0c0,0.6,0,1.3,0,1.9c0.6,0,1.3,0,1.9,0c0,0.6,0,1.3,0,1.9
			c0.6,0,1.2,0,1.9,0c0,0.6,0,1.3,0,1.9c0.6,0,1.3,0,1.9,0c0,0.6,0,1.3,0,1.9c0.7,0,1.3,0,2,0c0,0.6,0,1.3,0,1.9
			c-1.3,0-2.6,0.1-3.9,0c0-0.6,0-1.3,0-1.9c-0.6,0-1.2,0-1.9,0c0-0.6,0-1.3,0-1.9c-0.6,0-1.3,0-1.9,0c0-0.6,0-1.3,0-1.9
			c-0.6,0-1.3,0-1.9,0c0-0.6,0-1.2,0-1.9c-0.6,0-1.2,0-1.9,0c0-0.6,0-1.3,0-1.9c-0.6,0-1.3,0-1.9,0c0-0.6,0-1.3,0-1.9
			c-0.6,0-1.3,0-1.9,0c0-0.6,0-1.3,0-1.9c-0.6,0-1.2,0-1.9,0C44.6,14.9,44.6,14.3,44.6,13.6z"/>
	</g>
	<g>
		<path class="st0" d="M87.2,2c2.6,0,5.2,0,7.7,0c0,0.6,0,1.3,0,1.9c0.6,0,1.3,0,1.9,0c0,0.6,0,1.3,0,1.9c0.6,0,1.3,0,1.9,0
			c0,0.6,0,1.3,0,1.9c1.3,0,2.6,0,3.9,0c0-0.6,0-1.3,0-1.9c0.6,0,1.3,0,1.9,0c0-0.6,0-1.3,0-1.9c0.6,0,1.3,0,1.9,0
			c0-0.6,0-1.3,0-1.9c2.6,0,5.2,0,7.7,0c0,0.6,0,1.3,0,1.9c0.6,0,1.3,0,1.9,0c0,1.3,0,2.6,0,3.9c0.6,0,1.3,0,1.9,0
			c0,1.9,0,3.9,0,5.8c-0.6,0-1.3,0-1.9,0c0,0.6,0,1.3,0,1.9c-0.6,0.1-1.3,0-1.9,0c0,0.6,0,1.3,0,1.9c-0.6,0-1.3,0-1.9,0
			c0,0.6,0,1.3,0,1.9c-0.6,0-1.3,0-1.9,0c-5.2,0-10.4,0-15.5,0c-1.3,0-2.6,0-3.8,0c-0.6,0-1.3,0-1.9,0c0-0.6,0-1.3,0-1.9
			c-0.6,0-1.3,0-1.9,0c0-0.6,0-1.3,0-1.9c-0.6,0-1.2,0-1.9,0c0-0.6,0-1.2,0-1.9c-0.6,0-1.3,0-1.9,0c0-1.9,0-3.9,0-5.8
			c0.6,0,1.3,0,1.9,0c0-1.3,0-2.6,0-3.9c0.6,0,1.3,0,1.9,0C87.2,3.3,87.2,2.6,87.2,2z"/>
		<g>
			<path class="st1" d="M85.3,0c1.8,0,3.6,0,5.4,0c2.1,0,4.2,0,6.3,0c0,0.6,0,1.3,0,1.9c0.6,0,1.3,0,1.9,0c0,0.7,0,1.3,0,2
				c1.3,0,2.5,0,3.8,0c0-0.7,0-1.3,0-2c0.6,0,1.3,0,1.9,0c0-0.6,0-1.3,0-1.9c3.9,0,7.8,0,11.7,0c0,0.6,0,1.3,0,1.9
				c0.6,0,1.3,0,1.9,0c0,1.3,0,2.6,0,3.9c0.6,0,1.3,0,1.9,0c0,3.3,0,6.5,0,9.8c-0.6,0-1.3,0-1.9,0c0,0.6,0,1.3,0,1.9
				c-0.6,0-1.3,0-1.9,0c0,0.6,0,1.3,0,1.9c-0.7,0-1.3,0-2,0c0,0.7,0,1.3,0,2c-0.6,0-1.3,0-1.9,0c0,0.6,0,1.3,0,1.9
				c-0.6,0-1.3,0-1.9,0c0,0.6,0,1.3,0,1.9c-0.7,0-1.3,0-2,0c0,0.7,0,1.3,0,2c-0.6,0-1.3,0-1.9,0c0,0.6,0,1.3,0,1.9
				c-0.6,0-1.3,0-1.9,0c0,0.6,0,1.3,0,1.9c-0.7,0-1.3,0-2,0c0,0.7,0,1.3,0,2c-1.3,0-2.6,0-3.9,0c0-0.7,0-1.3,0-2c-0.7,0-1.3,0-2,0
				c0-0.6,0-1.3,0-1.9c-0.6,0-1.3,0-1.9,0c0-0.6,0-1.3,0-1.9c-0.6,0-1.3,0-1.9,0c0-0.7,0-1.3,0-2c-0.7,0-1.3,0-2,0
				c0-0.6,0-1.3,0-1.9c-0.6,0-1.3,0-1.9,0c0-0.6,0-1.3,0-1.9c-0.6,0-1.3,0-1.9,0c0-0.7,0-1.3,0-2c-0.7,0-1.3,0-2,0
				c0-0.6,0-1.3,0-1.9c-0.7,0-1.3,0-2,0c0-0.6,0-1.3,0-1.9c-0.6,0-1.3,0-1.9,0c0-2.8,0-5.7,0-8.5c0-0.4,0-0.9,0-1.3
				c0.6,0,1.2,0,1.9,0c0-1.3,0-2.6,0-3.9c0.6-0.1,1.3,0,1.9,0C85.2,1.3,85.2,0.6,85.3,0z M87.2,2c0,0.6,0,1.3,0,1.9
				c-0.6,0-1.3,0-1.9,0c-0.1,1.3,0,2.6,0,3.9c-0.6,0-1.3,0-1.9,0c0,1.9,0,3.9,0,5.8c0.6,0,1.3,0,1.9,0c0,0.6,0,1.2,0,1.9
				c0.6,0,1.2,0,1.9,0c0,0.6,0,1.3,0,1.9c0.6,0,1.3,0,1.9,0c0,0.6,0,1.3,0,1.9c0.6,0,1.3,0,1.9,0c0,0.6,0,1.3,0,1.9
				c0.6,0,1.2,0,1.9,0c0,0.6,0,1.2,0,1.9c0.6,0,1.3,0,1.9,0c0,0.6,0,1.3,0,1.9c0.6,0,1.3,0,1.9,0c0,0.6,0,1.3,0,1.9
				c0.6,0,1.2,0,1.9,0c0,0.6,0,1.2,0,1.9c1.3,0.1,2.6,0.1,3.9,0c0-0.6,0-1.3,0-1.9c0.6,0,1.3,0,1.9,0c0.1-0.6,0-1.3,0-1.9
				c0.6,0,1.3,0,1.9,0c0-0.6,0-1.3,0-1.9c0.6,0,1.3,0,1.9,0c0-0.6,0-1.3,0-1.9c0.6,0,1.3,0,1.9,0c0-0.6,0-1.3,0-1.9
				c0.6,0,1.3,0,1.9,0c0-0.6,0-1.3,0-1.9c0.6,0,1.3,0,1.9,0c0-0.6,0-1.3,0-1.9c0.6,0,1.3,0,1.9,0c0-0.6,0-1.3,0-1.9
				c0.6,0,1.3,0,1.9,0c0-1.9,0-3.9,0-5.8c-0.6,0-1.3,0-1.9,0c0-1.3,0-2.6,0-3.9c-0.6,0-1.3,0-1.9,0c0-0.6,0-1.3,0-1.9
				c-2.6,0-5.2,0-7.7,0c0,0.6,0,1.3,0,1.9c-0.6,0-1.3,0-1.9,0c0,0.6,0,1.3,0,1.9c-0.6,0-1.3,0-1.9,0c0,0.6,0,1.3,0,1.9
				c-1.3,0-2.6,0-3.9,0c0-0.6,0-1.3,0-1.9c-0.6,0-1.3,0-1.9,0c0-0.6,0-1.3,0-1.9c-0.6,0-1.3,0-1.9,0c0-0.6,0-1.3,0-1.9
				C92.4,2,89.8,2,87.2,2z"/>
		</g>
		<path class="st2" d="M94.9,19.5c5.2,0,10.4,0,15.5,0c0,0.6,0,1.3,0,1.9c-0.6,0-1.3,0-1.9,0c0,0.6,0,1.3,0,1.9c-0.6,0-1.3,0-1.9,0
			c0,0.6,0,1.3,0,1.9c-0.6,0-1.3,0-1.9,0c0,0.6,0,1.3,0,1.9c-0.6,0-1.3,0-1.9,0c-0.7,0-1.3,0-2,0c0-0.6,0-1.3,0-1.9
			c-0.6,0-1.3,0-1.9,0c0-0.6,0-1.3,0-1.9c-0.6,0-1.2,0-1.9,0c0-0.6,0-1.3,0-1.9c-0.6,0-1.3,0-1.9,0C94.9,20.8,94.9,20.1,94.9,19.5z"
			/>
		<path class="st3" d="M91.1,19.4c1.3,0,2.6,0,3.8,0c0,0.7,0,1.3,0,2c0.6,0,1.3,0,1.9,0c0,0.6,0,1.3,0,1.9c0.6,0,1.2,0,1.9,0
			c0,0.6,0,1.3,0,1.9c0.6,0,1.3,0,1.9,0c0,0.6,0,1.3,0,1.9c0.7,0,1.3,0,2,0c0,0.6,0,1.3,0,1.9c-1.3,0-2.6,0.1-3.9,0
			c0-0.6,0-1.2,0-1.9c-0.6,0-1.2,0-1.9,0c0-0.6,0-1.3,0-1.9c-0.6,0-1.3,0-1.9,0c-0.1-0.6,0-1.3,0-1.9c-0.6,0-1.3,0-1.9,0
			c0-0.6,0-1.2,0-1.9c-0.6,0-1.2,0-1.9,0C91.1,20.7,91.1,20.1,91.1,19.4z"/>
	</g>
</g>
</svg>
